<svg xmlns="http://www.w3.org/2000/svg" width="79" height="47" viewBox="0 0 79 47"><path fill="#141720" d="M78.23 22.99l-4.5-2.6L71.15 9.5a6.4 6.4 0 0 0-6.26-4.93H51.96V2.54c0-.85-.7-1.54-1.55-1.54H2.55C1.7 1 1 1.69 1 2.54v36.74c0 .85.7 1.54 1.55 1.54h5a7.78 7.78 0 0 0 15.25 0h31.45a7.78 7.78 0 0 0 15.25 0h7.95c.85 0 1.55-.69 1.55-1.54V24.32c0-.55-.3-1.06-.77-1.33zM15.17 43.92a4.66 4.66 0 0 1-4.67-4.64 4.66 4.66 0 1 1 9.35 0c0 2.56-2.1 4.64-4.68 4.64zM34.84 32.2c-.86 0-1.56.69-1.56 1.54 0 .85.7 1.54 1.56 1.54h14.01v2.45H22.8a7.78 7.78 0 0 0-7.63-6.18 7.78 7.78 0 0 0-7.62 6.18H4.1v-7.98h44.74v2.45zm14.01-5.53H4.11V4.08h44.74zM64.9 7.66a3.3 3.3 0 0 1 3.24 2.54l2.28 9.65h-9.44V7.65zm-3.01 36.26a4.66 4.66 0 0 1-4.66-4.33 1.53 1.53 0 0 0 0-.62 4.66 4.66 0 0 1 4.66-4.33 4.66 4.66 0 0 1 4.67 4.64c0 2.56-2.1 4.64-4.67 4.64zm14.01-13.5h-2.95V28.8h2.95zm-4.5-4.71c-.87 0-1.56.69-1.56 1.54v4.71c0 .86.7 1.55 1.55 1.55h4.51v4.23H69.5a7.78 7.78 0 0 0-15.25 0h-2.29V7.66h5.9V21.4c0 .85.7 1.54 1.56 1.54h12.53l3.94 2.27v.5zm-41.8 6.5h-1.3c-.87 0-1.56.69-1.56 1.54 0 .85.7 1.54 1.55 1.54h1.31c.86 0 1.56-.69 1.56-1.54 0-.85-.7-1.54-1.56-1.54z"/></svg>
