<svg xmlns="http://www.w3.org/2000/svg" width="70" height="66" viewBox="0 0 70 66"><path d="M17.54 32.66l5.47.92v1.34c0 .34.15.68.4.91l2.2 2.07-10.74 11.38-2.66.18c-.3.02-.58.15-.8.36L7.36 53.8c-2.81 2.76-3.73 6.18-2.13 7.96.63.71 1.6 1.06 2.72 1.06 1.66 0 3.68-.76 5.55-2.2l4.58-3.53c.21-.16.36-.38.44-.63l.74-2.46 12.3-10.52L53.3 63.92a7.7 7.7 0 0 0 5.3 2.07c1.98 0 3.97-.75 5.47-2.24l2.76-2.77a7.28 7.28 0 0 0-.16-10.53L48.66 33.52l19.88-20.46a1.25 1.25 0 0 0-.06-1.8L58.07 1.91a1.26 1.26 0 0 0-1.72.04L35.87 22.18l-.13.2-.75.06-.69-6.18C34.26 7.29 26.8 0 17.63 0a17 17 0 0 0-3.68.4c-.99.23-1.7.87-1.96 1.8-.46 1.6.54 3.83 2.59 5.83l5.68 5.53-4.62 4.73-5.96-6.02C8.1 10.69 6.24 9.75 4.65 9.75c-1.53 0-2.68.85-3.08 2.28-.39 1.4-.58 2.84-.58 4.3 0 8.97 7.41 16.28 16.55 16.33zm-.21 19.67c-.18.16-.32.36-.39.6l-.72 2.42-4.26 3.28c-2.27 1.75-4.44 1.93-4.87 1.45-.42-.47.02-2.53 2.02-4.49l3.73-3.66 2.7-.18c.3-.02.6-.16.82-.39l11.08-11.74 2.26 2.12zm47.63-.05a4.8 4.8 0 0 1 .1 6.93l-2.76 2.76a5.27 5.27 0 0 1-7.27.12l-29.5-27.72v-1.29l8.88-8.06 1.38-.13zm-7.7-47.7l8.57 7.67-19 19.55-8.79-8.23zM4 12.7c.07-.24.17-.44.66-.44.69 0 1.94.47 3.24 1.78l6.87 6.92a1.25 1.25 0 0 0 1.8 0l6.37-6.54a1.25 1.25 0 0 0-.02-1.78l-6.58-6.4c-1.7-1.66-2.06-3.08-1.84-3.38 1.03-.23 2.08-.34 3.15-.34 7.8 0 14.15 6.2 14.15 13.81v.14l.77 6.84-8.69 7.87-6.02-1.01a1.46 1.46 0 0 0-.2-.02c-7.8 0-14.15-6.2-14.15-13.82 0-1.23.16-2.45.5-3.63zm54.44 48a5.21 5.21 0 1 0-.02-10.43 5.21 5.21 0 0 0 .02 10.43zm0-7.9a2.7 2.7 0 1 1-.01 5.4 2.7 2.7 0 0 1 0-5.4zm.4-45a1.35 1.35 0 0 0-1.9.03L41.91 23.29a1.34 1.34 0 1 0 1.93 1.88L58.87 9.7c.51-.53.5-1.38-.04-1.9zm2.94 2.73a1.35 1.35 0 0 0-1.9.02L44.85 26.01a1.34 1.34 0 0 0 1.93 1.88L61.8 12.43c.52-.54.5-1.39-.03-1.9z"/></svg>
