<svg xmlns="http://www.w3.org/2000/svg" width="71" height="72" viewBox="0 0 71 72"><path fill="#141720" d="M53.58 20.1a3.22 3.22 0 0 0-2.37-1.06h-1.66l.2-3.06.24-3.8A10.47 10.47 0 0 0 39.63 1h-8.26a10.48 10.48 0 0 0-10.36 11.19l.37 5.7.07 1.15h-1.8c-.9 0-1.76.39-2.37 1.06a3.3 3.3 0 0 0-.84 2.48l.54 6.35a3.24 3.24 0 0 0 2.11 2.8v5.91c0 .8.64 1.43 1.42 1.43.78 0 1.41-.64 1.41-1.43v-5.72h.38a13.39 13.39 0 0 0 13.2 11.84 13.35 13.35 0 0 0 11.08-6.02 7.2 7.2 0 0 0 2.7-.82c4.1-2.21 4.58-7.76 4.6-8l.54-6.34a3.3 3.3 0 0 0-.84-2.48zM19.8 28.69l-.54-6.35a.4.4 0 0 1 .4-.44h1.98l.46 7.16h-1.9a.4.4 0 0 1-.4-.37zM23.83 12a7.62 7.62 0 0 1 7.54-8.14h8.26c.18 0 .36 0 .54.02l-2.19 5.91c-.35.6-3.56 5.49-13.87 6.46zM45.94 31a10.7 10.7 0 0 1-1 3.9 12.7 12.7 0 0 1-4.14-1.36 3.56 3.56 0 0 0-3.46-4.33 3.56 3.56 0 0 0-3.54 3.58 3.56 3.56 0 0 0 3.54 3.57c.64 0 1.25-.17 1.77-.48 1.45.76 2.82 1.29 4.1 1.6-.76.83-1.65 1.55-2.67 2.1a10.32 10.32 0 0 1-10.08 0 10.55 10.55 0 0 1-5.4-8.58l-.77-11.88c7.97-.74 12.31-3.69 14.45-5.8a8.2 8.2 0 0 0 2.45 1.83c1.14.6 3.04 1.22 5.66 1.87zm-7.9 1.79c0 .4-.31.71-.7.71a.71.71 0 0 1-.7-.71c0-.4.3-.72.7-.72.39 0 .7.32.7.72zM47.18 12l-.14 2.1a22.55 22.55 0 0 1-4.54-1.5c-1.55-.81-1.9-1.48-1.9-1.68v-.01l2.33-6.3A7.62 7.62 0 0 1 47.17 12zm1.04 22.24c.23-.75.4-1.53.49-2.32h1.45a5.57 5.57 0 0 1-1.94 2.32zm2.85-5.55a.4.4 0 0 1-.4.37H48.9l.46-7.16h1.85a.4.4 0 0 1 .4.44zM70.98 70.3l-1.37-7.64a21.21 21.21 0 0 0-5.82-11.23 20.83 20.83 0 0 0-14.84-6.22h-4.12c-.37 0-.73.15-1 .42l-8.33 8.43-8.33-8.43a1.41 1.41 0 0 0-1-.42h-4.12A20.83 20.83 0 0 0 7.2 51.44a21.22 21.22 0 0 0-5.82 11.23L.02 70.31A1.4 1.4 0 0 0 1.42 72h68.17a1.44 1.44 0 0 0 1.4-1.69zM36.5 57.11l8.92-9.03h3.53l.55.01-14 14.17-2.05-2.07zm-14.45-9.03h3.53l7.92 8.02-2.05 2.06L21.5 48.1h.55zM4.17 63.18a18.4 18.4 0 0 1 13.78-14.63L34.5 65.3l.1.1a1.4 1.4 0 0 0 1.9-.1l16.55-16.74a18.4 18.4 0 0 1 13.78 14.63l1.06 5.96H3.11zM20.51 40.5c-.78 0-1.42.64-1.42 1.43v.58c0 .79.64 1.43 1.42 1.43.78 0 1.41-.64 1.41-1.43v-.58c0-.79-.63-1.43-1.41-1.43z"/></svg>
