<svg xmlns="http://www.w3.org/2000/svg" width="72" height="72" viewBox="0 0 72 72"><path fill="#141720" d="M61.6 11.4A35.27 35.27 0 0 0 36.5 1c-9.48 0-18.4 3.7-25.1 10.4A35.27 35.27 0 0 0 1 36.5c0 9.48 3.7 18.4 10.4 25.1A35.27 35.27 0 0 0 36.5 72c9.48 0 18.4-3.7 25.1-10.4A35.27 35.27 0 0 0 72 36.5c0-9.48-3.7-18.4-10.4-25.1zM36.5 69.17A32.7 32.7 0 0 1 3.83 36.5 32.7 32.7 0 0 1 36.5 3.83 32.7 32.7 0 0 1 69.17 36.5 32.7 32.7 0 0 1 36.5 69.17zm20.19-47.91a4.96 4.96 0 0 0-7 0L28.86 42.09l-6.82-6.83a4.96 4.96 0 0 0-7 7L25.36 52.6a4.92 4.92 0 0 0 7 0L56.7 28.26a4.96 4.96 0 0 0 0-7zm-2 5L30.36 50.59a2.11 2.11 0 0 1-3 0L17.04 40.26a2.12 2.12 0 0 1 3-3l7.82 7.83c.55.55 1.45.55 2 0L51.7 23.26a2.12 2.12 0 0 1 3 3zm10.4 16.08c-.76-.2-1.53.27-1.73 1.02A27.7 27.7 0 0 1 36.5 64.22a1.42 1.42 0 0 0 0 2.83 30.52 30.52 0 0 0 29.6-22.99c.2-.76-.26-1.53-1.02-1.72zm.55-7.26c-.79 0-1.42.64-1.42 1.42 0 .4 0 .81-.02 1.21-.04.78.57 1.44 1.35 1.48h.06c.75 0 1.38-.6 1.41-1.36.02-.44.03-.89.03-1.33 0-.78-.63-1.42-1.41-1.42z"/></svg>
