<svg id="SvgjsSvg1020" xmlns="http://www.w3.org/2000/svg" version="1.1" xmlns:xlink="http://www.w3.org/1999/xlink" xmlns:svgjs="http://svgjs.com/svgjs" width="63" height="63" viewBox="0 0 63 63"><title>Shape 1</title><desc>Created with Avocode.</desc><defs id="SvgjsDefs1021"></defs><path id="SvgjsPath1022" d="M1381.92032 6542.07822C1376.06506 6536.223330000001 1368.28033 6532.99723 1359.9999599999999 6532.99723C1351.71959 6532.99723 1343.93474 6536.22333 1338.0795999999998 6542.07822C1332.22446 6547.93311 1328.9999699999998 6555.71809 1328.9999699999998 6563.997850000001C1328.9999699999998 6572.27872 1332.22446 6580.063700000001 1338.0795999999998 6585.91859C1343.9347399999997 6591.77348 1351.7195799999997 6594.99846 1359.9999599999999 6594.99846C1368.2803299999998 6594.99846 1376.06506 6591.77348 1381.92032 6585.91859C1387.7754599999998 6580.063700000001 1390.99995 6572.27872 1390.99995 6563.997850000001C1390.99995 6555.71809 1387.7754599999998 6547.933110000001 1381.92032 6542.07822ZM1359.99996 6592.52902C1344.2685700000002 6592.52902 1331.4699500000002 6579.72938 1331.4699500000002 6563.99784C1331.4699500000002 6548.2663 1344.2685600000002 6535.46778 1359.99996 6535.46778C1375.73135 6535.46778 1388.5298500000001 6548.2663 1388.5298500000001 6563.99784C1388.5298500000001 6579.72938 1375.73135 6592.52902 1359.99996 6592.52902ZM1359.99996 6539.17306C1346.3114500000001 6539.17306 1335.17521 6550.31006 1335.17521 6563.99785C1335.17521 6577.68675 1346.3114600000001 6588.82263 1359.99996 6588.82263C1373.6883500000001 6588.82263 1384.8246000000001 6577.68675 1384.8246000000001 6563.99785C1384.8246000000001 6550.31006 1373.6883500000001 6539.17306 1359.99996 6539.17306ZM1376.56609 6578.99167L1374.8465 6577.2722C1374.36425 6576.79079 1373.5821600000002 6576.79079 1373.0997900000002 6577.2722C1372.6174200000003 6577.755840000001 1372.6174200000003 6578.53701 1373.0997900000002 6579.0195300000005L1374.8089600000003 6580.727860000001C1371.1216700000002 6583.996300000001 1366.3514300000004 6586.067910000001 1361.1115300000004 6586.325330000001V6583.882630000001C1361.1115300000004 6583.200640000001 1360.5586700000003 6582.647910000001 1359.8766000000003 6582.647910000001C1359.1944200000003 6582.647910000001 1358.6415500000003 6583.200640000001 1358.6415500000003 6583.882630000001V6586.310840000001C1353.4114900000002 6585.995470000001 1348.6604700000003 6583.875940000001 1345.0061400000002 6580.564040000001L1346.7256100000002 6578.844570000001C1347.2079800000001 6578.363160000001 1347.2079800000001 6577.580880000001 1346.7256100000002 6577.099470000001C1346.2433600000002 6576.615830000001 1345.4612700000002 6576.615830000001 1344.9789000000003 6577.099470000001L1343.2696100000003 6578.806680000001C1340.0022100000003 6575.12035 1337.9309400000002 6570.349740000001 1337.6729900000003 6565.10998H1340.1155000000003C1340.7975700000004 6565.10998 1341.3505500000003 6564.55725 1341.3505500000003 6563.87526C1341.3505500000003 6563.19327 1340.7975700000004 6562.63943 1340.1155000000003 6562.63943H1337.6877500000003C1338.0030400000003 6557.4097 1340.1231700000003 6552.6580300000005 1343.4339400000003 6549.00402L1345.1534100000003 6550.72349C1345.3946500000004 6550.9653100000005 1345.7107400000004 6551.085660000001 1346.0268200000003 6551.085660000001C1346.3427900000004 6551.085660000001 1346.6589900000004 6550.9653100000005 1346.9001200000002 6550.72349C1347.3824900000002 6550.24208 1347.3824900000002 6549.4598000000005 1346.9001200000002 6548.97839L1345.1910600000003 6547.268950000001C1348.8783500000004 6544.000510000001 1353.6485900000002 6541.930010000001 1358.8882600000004 6541.672590000001V6544.114170000001C1358.8882600000004 6544.796160000001 1359.4412400000003 6545.348890000001 1360.1233100000004 6545.348890000001C1360.8054900000004 6545.348890000001 1361.3583600000004 6544.796160000001 1361.3583600000004 6544.114170000001V6541.685960000001C1366.5884200000005 6542.002440000001 1371.3392100000003 6544.121970000001 1374.9937700000005 6547.432760000001L1373.2741800000006 6549.15112C1372.7919300000005 6549.63364 1372.7919300000005 6550.41593 1373.2741800000006 6550.898450000001C1373.5154200000006 6551.140270000001 1373.8315100000007 6551.259510000001 1374.1475900000005 6551.259510000001C1374.4635600000006 6551.259510000001 1374.7797600000006 6551.140270000001 1375.0208900000005 6550.898450000001L1376.7299500000004 6549.189010000001C1379.9975800000004 6552.876460000001 1382.0687300000004 6557.647070000001 1382.3266800000004 6562.886830000001H1379.8844000000004C1379.2022200000004 6562.886830000001 1378.6493500000004 6563.440670000001 1378.6493500000004 6564.122670000002C1378.6493500000004 6564.803550000001 1379.2022100000004 6565.357390000002 1379.8844000000004 6565.357390000002H1382.3120400000005C1381.9968700000004 6570.587120000002 1379.8767400000004 6575.337670000002 1376.5660800000005 6578.991690000002ZM1366.67793 6568.93561L1366.30771 6568.565640000001C1365.82534 6568.083120000001 1365.04337 6568.083120000001 1364.56088 6568.565640000001C1364.07863 6569.047050000001 1364.07863 6569.83045 1364.56088 6570.311860000001L1364.93121 6570.68295C1365.17245 6570.9247700000005 1365.48854 6571.044000000001 1365.80451 6571.044000000001C1366.1206 6571.044000000001 1366.4368 6570.924760000001 1366.6779199999999 6570.68295C1367.1601699999999 6570.200430000001 1367.1601699999999 6569.418140000001 1366.6779199999999 6568.93562ZM1363.59055 6565.84881L1361.2350099999999 6563.49304V6549.4308200000005C1361.2350099999999 6548.74883 1360.68203 6548.1961 1359.9999599999999 6548.1961C1359.3177799999999 6548.1961 1358.7649099999999 6548.74883 1358.7649099999999 6549.4308200000005V6564.00453C1358.7649099999999 6564.33104 1358.89503 6564.64641 1359.12666 6564.87708L1361.8438299999998 6567.59503C1362.0850699999999 6567.835730000001 1362.40116 6567.957200000001 1362.7171299999998 6567.957200000001C1363.0332099999998 6567.957200000001 1363.3494199999998 6567.835730000001 1363.5905399999997 6567.59503C1364.0727899999997 6567.11362 1364.0727899999997 6566.330220000001 1363.5905399999997 6565.84881Z " fill="#141720" fill-opacity="1" transform="matrix(1,0,0,1,-1328,-6532)"></path></svg>
