<svg id="SvgjsSvg1017" xmlns="http://www.w3.org/2000/svg" version="1.1" xmlns:xlink="http://www.w3.org/1999/xlink" xmlns:svgjs="http://svgjs.com/svgjs" width="65" height="65" viewBox="0 0 65 65"><title>Forma 1</title><desc>Created with Avocode.</desc><defs id="SvgjsDefs1018"></defs><path id="SvgjsPath1019" d="M609.40029 6595.68157L611.5385 6593.49518C611.81693 6593.30239 611.99981 6592.97588 611.99981 6592.60703C611.99981 6592.60146 611.99981 6592.597 611.99981 6592.592540000001C612.00324 6592.312830000001 611.9008200000001 6592.032010000001 611.6913900000001 6591.816940000001L609.4530400000001 6589.53026C609.0422000000001 6589.1090300000005 608.37489 6589.1090300000005 607.9637100000001 6589.53026C607.5520700000001 6589.95038 607.5520700000001 6590.63237 607.9637100000001 6591.05137L608.4300600000001 6591.52832H560.3249300000001L560.7912800000001 6591.05137C561.2029200000002 6590.63237 561.2029200000002 6589.9503700000005 560.7912800000001 6589.53026C560.3805500000002 6589.1090300000005 559.7132500000001 6589.1090300000005 559.3019500000001 6589.53026L557.1638500000001 6591.71442C556.8853000000001 6591.90944 556.7025400000001 6592.23595 556.7025400000001 6592.60591C556.7025400000001 6592.60925 556.7025400000001 6592.61483 556.7025400000001 6592.61928C556.6991100000001 6592.89899 556.8018700000001 6593.17981 557.0108400000001 6593.39265L559.2493100000002 6595.68156C559.6601500000002 6596.10056 560.3274600000002 6596.10056 560.7386400000001 6595.68156C561.1502800000002 6595.26033 561.1502800000002 6594.57945 560.7386400000001 6594.15822L560.2722900000001 6593.68238H608.37696L607.91061 6594.15933C607.49897 6594.57945 607.49897 6595.26033 607.91061 6595.68156C608.1161500000001 6595.89218 608.38577 6595.99693 608.65539 6595.99693C608.92513 6595.99693 609.19475 6595.89218 609.40029 6595.68156ZM551.32942 6588.51618C551.60076 6588.52064 551.87805 6588.413659999999 552.08702 6588.199699999999L554.3254800000001 6585.911899999999C554.73701 6585.491779999999 554.73701 6584.8108999999995 554.3254800000001 6584.3907899999995C553.9146400000001 6583.96956 553.24733 6583.96956 552.8361500000001 6584.3907899999995L552.3696900000001 6584.8666299999995V6535.700699999999L552.8361500000001 6536.17765C553.24688 6536.59888 553.9141800000001 6536.59888 554.3254800000001 6536.17765C554.73701 6535.75865 554.73701 6535.07665 554.3254800000001 6534.65542L552.1877200000001 6532.47126C551.9960300000001 6532.18152 551.6761700000001 6532.007680000001 551.3029800000002 6531.99877C551.0274100000001 6531.99208 550.7543500000002 6532.10018 550.5453800000001 6532.315250000001L548.3070300000002 6534.601930000001C547.8953900000001 6535.0220500000005 547.8953900000001 6535.70293 548.3070300000002 6536.12416C548.7177600000001 6536.54428 549.3850600000002 6536.54428 549.7963600000002 6536.12416L550.2627100000002 6535.64832V6584.81314L549.7963600000002 6584.3373C549.3855200000002 6583.91607 548.7182100000001 6583.91607 548.3070300000002 6584.3373C547.8953900000001 6584.7563 547.8953900000001 6585.43718 548.3070300000002 6585.85841L550.4446700000002 6588.04257C550.6338400000002 6588.32785 550.9537000000003 6588.51618 551.3160200000002 6588.51618C551.3206000000002 6588.51618 551.3248300000002 6588.51618 551.3294100000002 6588.51618ZM611.99936 6584.3919V6555.04612C611.99936 6554.45105 611.5279800000001 6553.96964 610.9461600000001 6553.96964H591.5160400000001V6533.07635C591.5160400000001 6532.48128 591.0445400000001 6531.99876 590.4627300000001 6531.99876H560.0465100000001C559.4645800000001 6531.99876 558.9932000000001 6532.48128 558.9932000000001 6533.07635V6584.39302C558.9932000000001 6584.986980000001 559.4645800000001 6585.47061 560.0465100000001 6585.47061H610.9465100000001C611.5284400000002 6585.47061 611.9998200000001 6584.98697 611.9993700000001 6584.3919000000005ZM591.47095 6583.31765V6556.1226H609.89331V6583.31765ZM571.29341 6568.89661H589.36478V6583.31765H571.29341ZM561.0997 6568.89661H569.18644V6583.31765H561.0997ZM561.0997 6566.74365V6543.49235H589.40986V6554.732980000001C589.3807899999999 6554.833270000001 589.36477 6554.9380200000005 589.36477 6555.046120000001V6566.743640000001ZM576.28555 6534.15283H589.40986V6541.33939H576.28555ZM561.0997 6534.15283H574.17858V6541.33939H561.0997Z " fill="#000000" fill-opacity="1" transform="matrix(1,0,0,1,-547,-6531)"></path></svg>
