<svg id="SvgjsSvg1014" xmlns="http://www.w3.org/2000/svg" version="1.1" xmlns:xlink="http://www.w3.org/1999/xlink" xmlns:svgjs="http://svgjs.com/svgjs" width="63" height="63" viewBox="0 0 63 63"><title>Shape 1</title><desc>Created with Avocode.</desc><defs id="SvgjsDefs1015"></defs><path id="SvgjsPath1016" d="M987.47109 6578.8156C986.18306 6577.909619999999 984.6967 6577.42264 983.19523 6577.34241C977.53624 6573.63825 973.8292700000001 6570.85678 971.66508 6568.6938L965.01686 6562.04659L969.05113 6557.53228C969.8158199999999 6557.963540000001 970.63694 6558.247700000001 971.4583899999999 6558.364710000001C972.0781999999999 6558.468350000001 972.4914499999999 6558.468350000001 972.9046899999998 6558.468350000001C973.7311799999999 6558.468350000001 973.9377499999998 6558.468350000001 974.7642399999999 6559.191580000001C974.3511099999998 6559.500260000001 974.1444299999998 6560.017330000001 974.1444299999998 6560.533280000001C974.1444299999998 6561.05035 974.3511099999998 6561.669940000001 974.7642399999999 6562.08337L978.3799999999999 6565.698380000001C978.8965899999998 6566.317970000001 979.7229599999998 6566.62776 980.5495699999999 6566.62776C981.3760599999999 6566.62776 982.2024399999999 6566.31797 982.7190299999999 6565.5947400000005L990.0538899999999 6558.26108C990.6736999999999 6557.74401 990.9836099999999 6556.91827 990.9836099999999 6556.09252C990.9836099999999 6555.26677 990.6736999999999 6554.54243 990.0538899999999 6553.92284L986.43801 6550.30783C986.0248799999999 6549.895509999999 985.50829 6549.6882399999995 984.99171 6549.6882399999995C984.4751200000001 6549.6882399999995 983.95865 6549.99803 983.5454100000001 6550.30783C982.7188000000001 6549.58572 982.7188000000001 6549.379559999999 982.7188000000001 6548.5527C982.7188000000001 6548.14038 982.7188000000001 6547.6222 982.51223 6547.00373C982.30555 6545.55728 981.5824 6544.1108300000005 980.446 6542.97529L976.7269 6539.2566400000005C974.55744 6537.0869600000005 973.5245 6536.055060000001 970.73512 6534.81588C964.7433400000001 6532.026620000001 958.6482100000001 6532.54368 949.7637100000001 6536.5721300000005C949.2471200000001 6536.77829 949.04056 6537.191720000001 949.1437800000001 6537.707670000001C949.2471200000001 6538.223620000001 949.6603700000001 6538.534530000001 950.1768400000001 6538.534530000001H951.5198100000001C956.0654000000001 6538.534530000001 958.4414200000001 6538.534530000001 962.5737700000001 6542.665490000001C964.3832000000001 6544.474110000001 964.4353800000001 6547.248890000002 962.8142100000001 6549.289300000001C962.5957400000001 6549.3216200000015 962.4293500000001 6549.419680000001 962.2638600000001 6549.585720000001L957.6747800000002 6554.706240000001L954.2058500000002 6551.238320000001C950.3931400000001 6547.426070000001 947.7113300000002 6543.818860000001 945.6472700000002 6539.803780000001C945.5388900000002 6537.771170000001 944.7232700000002 6535.870060000001 943.2553400000002 6534.402440000001C941.4991300000002 6532.647310000001 939.0197700000001 6531.820450000001 936.5404000000002 6532.027720000001C936.2304900000003 6532.131360000001 935.9205900000002 6532.337510000001 935.8172500000002 6532.543670000001C935.6106800000001 6532.853460000001 935.6106800000001 6533.266890000001 935.8172500000002 6533.576690000001L938.7098600000002 6538.741790000001C938.0900500000001 6540.082380000001 936.6436300000001 6540.909240000001 935.1974400000001 6540.806710000001L932.2014900000001 6535.84777C932.0982600000001 6535.53909 931.6849000000002 6535.3329300000005 931.3750000000001 6535.3329300000005C931.0650900000002 6535.22929 930.7551900000001 6535.435450000001 930.5485100000001 6535.74636C928.06915 6539.46278 928.9988700000001 6544.42172 932.71797 6547.00371C933.9992500000001 6547.91972 935.44281 6548.42676 936.90479 6548.53151C936.92115 6548.53931 936.93649 6548.5471099999995 936.95343 6548.5538C940.98244 6550.617609999999 944.59831 6553.303239999999 948.42064 6557.124409999999L952.1989100000001 6560.816309999999L930.23873 6585.322389999999C929.41224 6586.148139999999 928.99899 6587.28479 928.99899 6588.420329999999C928.99899 6589.555869999999 929.41224 6590.590009999999 930.23873 6591.415749999999L931.68503 6592.8622C932.51152 6593.585419999999 933.54458 6593.99774 934.57764 6593.99774C935.6107 6593.99774 936.7470999999999 6593.585419999999 937.57359 6592.75856L959.50871 6568.21237L965.87975 6574.58099C968.04715 6576.74732 970.8333299999999 6580.5640300000005 974.54716 6586.132530000001C974.6803699999999 6588.120560000001 975.4940399999999 6589.977100000001 976.93371 6591.415750000001C978.48335 6592.965840000001 980.54958 6593.791580000001 982.7190400000001 6593.791580000001C983.02895 6593.791580000001 983.3388500000001 6593.791580000001 983.5455300000001 6593.791580000001C983.85544 6593.791580000001 984.1653400000001 6593.585420000001 984.3720200000001 6593.275630000001C984.5785800000001 6592.965830000001 984.5785800000001 6592.552410000001 984.3720200000001 6592.241500000001L981.3760700000001 6587.181150000001C982.0991100000001 6585.839450000001 983.4421900000001 6585.011470000001 984.9918300000002 6585.116230000001L987.8844400000002 6590.074050000001C987.9876700000002 6590.382730000001 988.4010300000001 6590.590000000001 988.7109300000002 6590.590000000001C989.1240600000002 6590.487480000001 989.4339700000002 6590.382730000001 989.6406500000002 6590.074050000001C992.1199000000001 6586.355400000001 991.0867200000001 6581.396460000001 987.4710800000001 6578.815590000001ZM963.91697 6541.014C960.61112 6537.81131 958.13175 6536.77829 955.34237 6536.46738C961.23093 6534.60973 965.56984 6534.7122500000005 969.9087499999999 6536.67465C972.38811 6537.70767 973.2145999999999 6538.53453 975.38406 6540.70309L979.10316 6544.42174C979.92965 6545.2486 980.44612 6546.28051 980.54958 6547.313529999999C980.65281 6547.829479999999 980.65281 6548.242909999999 980.65281 6548.553819999999C980.65281 6549.688249999999 980.7560400000001 6550.515109999999 981.99577 6551.754289999999C982.4089 6552.168829999999 983.02883 6552.373879999999 983.54542 6552.373879999999C984.1652300000001 6552.373879999999 984.68182 6552.168839999999 984.99172 6551.754289999999L988.60748 6555.369299999999C988.81416 6555.576569999999 988.91739 6555.783839999999 988.91739 6556.092519999999C988.91739 6556.403429999999 988.8141599999999 6556.609589999999 988.60748 6556.815749999999L981.27262 6564.149409999999C980.8594899999999 6564.561729999999 980.23956 6564.561729999999 979.82632 6564.149409999999L976.2104400000001 6560.534399999999C976.62369 6560.224599999999 976.83037 6559.7075399999985 976.72703 6559.087949999998C976.72703 6558.571999999998 976.52035 6557.951299999998 976.10722 6557.538979999998C974.86748 6556.298689999999 974.04099 6556.196169999998 972.90471 6556.196169999998C972.5948000000001 6556.196169999998 972.18167 6556.196169999998 971.6650900000001 6556.092529999998C970.52858 6555.988889999998 969.5988600000001 6555.472939999998 968.7724800000001 6554.647189999998L964.3303400000001 6550.205319999998C966.6029100000001 6547.417169999998 966.3963400000001 6543.492369999998 963.9169800000001 6541.014009999998ZM931.47835 6538.53453L933.6478099999999 6542.25318C933.8544899999999 6542.56297 934.1643999999999 6542.76913 934.4743 6542.76913H934.9908899999999C937.3670299999999 6542.87277 939.5364799999999 6541.6335899999995 940.56954 6539.56755L940.77622 6539.05048C940.9829 6538.7418 940.9829 6538.43089 940.77622 6538.1222099999995L938.5033099999999 6534.19629C939.7430499999999 6534.40356 940.8794499999999 6535.02315 941.80928 6535.95254C942.87438 6537.10591 943.55634 6538.56462 943.5966199999999 6540.1325400000005C943.5765899999999 6540.211660000001 943.5653799999999 6540.29747 943.5653799999999 6540.3944200000005C943.5653799999999 6540.872480000001 943.5075899999999 6541.338290000001 943.4006999999999 6541.788500000001C943.0110299999999 6543.28398 942.0764999999999 6544.58668 940.7761099999999 6545.45477C938.7098799999999 6546.79758 935.9206099999999 6546.79758 933.8544899999999 6545.35113C931.68503 6543.80216 930.75532 6541.01401 931.47835 6538.53454ZM949.86706 6555.67909C946.76788 6552.47751 943.6686000000001 6549.99915 940.36274 6548.036749999999C940.87933 6547.829479999999 941.49914 6547.519679999999 942.01561 6547.209889999999C943.56525 6546.177989999999 944.5983100000001 6544.834059999999 945.21812 6543.182559999999C947.1809 6546.48666 949.66026 6549.585719999999 952.75955 6552.68366L956.30791 6556.231809999999L953.52528 6559.337549999999ZM936.12728 6591.20961C935.3006700000001 6592.03536 933.9578200000001 6592.1389899999995 933.13122 6591.31213L931.68492 6589.97043C931.27179 6589.5558900000005 931.06511 6589.03993 931.06511 6588.52398C931.06511 6587.90439 931.27179 6587.38732 931.78815 6586.87249L932.37329 6586.21613L933.85438 6587.69824C934.06106 6587.904399999999 934.2676299999999 6588.00692 934.57753 6588.00692C934.88744 6588.00692 935.09412 6587.904399999999 935.30057 6587.69824C935.7138199999999 6587.28481 935.7138199999999 6586.66522 935.30057 6586.251789999999L933.73845 6584.689449999999L935.10362 6583.162769999999L936.74699 6584.805349999999C936.95367 6585.011509999998 937.16012 6585.116259999999 937.47003 6585.116259999999C937.78005 6585.116259999999 937.9866199999999 6585.011509999998 938.19318 6584.805349999999C938.6064299999999 6584.391919999999 938.6064299999999 6583.772329999999 938.19318 6583.3600099999985L936.46901 6581.636079999998L963.04173 6551.913639999999L967.3806400000001 6556.249649999999L963.11737 6561.019149999999C962.9956000000001 6561.070409999999 962.8878000000001 6561.149529999999 962.78057 6561.256509999999L958.64834 6565.905659999999C958.5302399999999 6566.022669999999 958.44727 6566.157509999999 958.39657 6566.300149999999ZM960.92228 6566.62887L963.74943 6563.465179999999L970.4252299999999 6570.13913C972.28478 6572.10153 975.4872999999999 6574.57989 980.1361099999999 6577.68006C979.5162999999999 6577.886219999999 978.8963699999999 6578.19601 978.2765599999999 6578.60833C976.9948199999999 6579.41068 976.0870799999999 6580.52059 975.4545599999999 6581.75085C975.4452899999999 6581.76757 975.43671 6581.785400000001 975.4274399999999 6581.80323C975.3898999999999 6581.877890000001 975.3534 6581.952560000001 975.3177999999999 6582.027220000001C975.26676 6582.1330800000005 975.2183499999999 6582.240060000001 975.1719999999999 6582.3481600000005C975.1402999999999 6582.420590000001 975.1087099999999 6582.494140000001 975.07873 6582.567690000001C975.0745 6582.57883 975.07038 6582.589980000001 975.0661399999999 6582.601120000001C975.0336399999999 6582.681350000001 975.0012499999999 6582.762700000001 974.9708099999999 6582.8440500000015C974.3839599999999 6581.982640000001 973.8195299999999 6581.171380000002 973.2765099999999 6580.405810000001L974.6609 6579.021760000001C975.07403 6578.608330000002 975.07403 6577.988740000002 974.6609 6577.576420000001C974.24765 6577.161870000001 973.62784 6577.161870000001 973.21448 6577.576420000001L972.06286 6578.727560000001C971.63359 6578.144740000002 971.21886 6577.595360000001 970.81889 6577.078290000001L971.76829 6576.129960000001C972.1815399999999 6575.7165300000015 972.1815399999999 6575.096940000001 971.76829 6574.684620000001C971.35516 6574.270080000001 970.73523 6574.270080000001 970.32199 6574.684620000001L969.5333800000001 6575.472480000001C968.77407 6574.556470000001 968.07369 6573.778640000001 967.42938 6573.134540000001ZM988.60737 6587.2848L986.43791 6583.566150000001C986.23123 6583.25636 985.92132 6583.050200000001 985.61142 6583.050200000001H985.09483C982.71869 6582.844040000001 980.54924 6584.186860000001 979.51629 6586.2517800000005L979.30961 6586.7677300000005C979.10293 6587.078640000001 979.10293 6587.387320000001 979.30961 6587.698230000001L981.5822900000001 6591.6219200000005C980.3426700000001 6591.415760000001 979.2061500000001 6590.7961700000005 978.27643 6589.866790000001C977.2314700000001 6588.735710000001 976.55615 6587.309310000001 976.49252 6585.775940000001C976.51026 6585.700160000001 976.5201 6585.619930000002 976.5201 6585.528550000001C976.5201 6584.2202800000005 976.93563 6582.995590000001 977.6596999999999 6581.9581100000005C978.1046499999999 6581.33852 978.6610599999999 6580.79694 979.3094799999999 6580.364560000001C980.3425399999999 6579.641340000001 981.4789399999999 6579.331540000001 982.7185599999999 6579.331540000001C983.9582999999999 6579.331540000001 985.1980399999999 6579.744970000001 986.2309799999999 6580.468200000001C988.4007799999999 6582.017170000001 989.33061 6584.805320000001 988.6073399999999 6587.2847900000015Z " fill="#141720" fill-opacity="1" transform="matrix(1,0,0,1,-928,-6531)"></path></svg>
