<svg id="SvgjsSvg1026" xmlns="http://www.w3.org/2000/svg" version="1.1" xmlns:xlink="http://www.w3.org/1999/xlink" xmlns:svgjs="http://svgjs.com/svgjs" width="48" height="48" viewBox="0 0 48 48"><title>Forma 1</title><desc>Created with Avocode.</desc><defs id="SvgjsDefs1027"></defs><path id="SvgjsPath1028" d="M1050.27889 7591.57593C1054.73705 7591.57593 1058.79009 7589.99464 1061.9514000000001 7587.31793L1076.13669 7601.5105300000005C1076.46102 7601.83593 1076.86625 7601.99862 1077.31211 7601.99862C1077.7173400000001 7601.99862 1078.1632100000002 7601.83592 1078.4874200000002 7601.5105300000005C1079.13596 7600.86308 1079.13596 7599.80889 1078.4874200000002 7599.160330000001L1064.3021300000003 7584.96773C1066.9365600000003 7581.80292 1068.5577300000002 7577.70762 1068.5577300000002 7573.2869200000005C1068.5577300000002 7563.190740000001 1060.3707400000003 7554.99791 1050.2788800000003 7554.99791C1040.2275300000003 7554.99791 1031.9999200000002 7563.22975 1031.9999200000002 7573.2869200000005C1031.9999200000002 7583.38533 1040.22754 7591.575940000001 1050.2788800000003 7591.575940000001ZM1050.27889 7558.32317C1058.5469 7558.32317 1065.23426 7565.055069999999 1065.23426 7573.28691C1065.23426 7581.55998 1058.5469 7588.25176 1050.27889 7588.25176C1042.0107600000001 7588.25176 1035.32341 7581.51986 1035.32341 7573.28691C1035.32341 7565.055069999999 1042.05128 7558.32317 1050.27889 7558.32317Z " fill="#ffffff" fill-opacity="1" transform="matrix(1,0,0,1,-1031,-7554)"></path><path id="SvgjsPath1029" d="M1049.55986 7578.73506C1049.55986 7579.25213 1049.9651000000001 7579.65887 1050.48294 7579.65887C1051.0006700000001 7579.65887 1051.4059100000002 7579.25213 1051.4059100000002 7578.73506V7573.64462H1056.4936100000002C1057.0114500000002 7573.64462 1057.4166900000002 7573.23899 1057.4166900000002 7572.72192C1057.4166900000002 7572.20262 1057.0114600000002 7571.79699 1056.4936100000002 7571.79699H1051.4059100000002V7566.70655C1051.4059100000002 7566.18837 1051.0006700000001 7565.78385 1050.48294 7565.78385C1049.9650900000001 7565.78385 1049.55986 7566.18837 1049.55986 7566.70655V7571.79699H1044.47216C1043.95443 7571.79699 1043.54919 7572.20262 1043.54919 7572.72192C1043.54919 7573.23899 1043.95443 7573.64462 1044.47216 7573.64462H1049.55986Z " fill="#fff386" fill-opacity="1" transform="matrix(1,0,0,1,-1031,-7554)"></path></svg>
