<svg id="SvgjsSvg1000" xmlns="http://www.w3.org/2000/svg" version="1.1" xmlns:xlink="http://www.w3.org/1999/xlink" xmlns:svgjs="http://svgjs.com/svgjs" width="18" height="28" viewBox="0 0 18 28"><title>Forma 1</title><desc>Created with Avocode.</desc><defs id="SvgjsDefs1001"></defs><path id="SvgjsPath1007" d="M452.145 570.999H439.854C438.83 570.999 437.99199999999996 571.8190000000001 437.99199999999996 572.822V596.174C437.99199999999996 597.177 438.83 597.9979999999999 439.854 597.9979999999999H452.145C453.169 597.9979999999999 454.008 597.179 454.008 596.175V572.822C454.008 571.819 453.169 570.999 452.145 570.999ZM444.034 572.312H447.966C448.091 572.312 448.19100000000003 572.4110000000001 448.19100000000003 572.534C448.19100000000003 572.656 448.091 572.754 447.966 572.754H444.034C443.90999999999997 572.754 443.808 572.6560000000001 443.808 572.534C443.808 572.411 443.90999999999997 572.312 444.034 572.312ZM446 597.086C445.486 597.086 445.069 596.6800000000001 445.069 596.1750000000001C445.069 595.671 445.486 595.263 446 595.263C446.514 595.263 446.931 595.671 446.931 596.1750000000001C446.931 596.6800000000001 446.514 597.086 446 597.086ZM452.712 594.623H439.288V573.889H452.712Z " fill="#ffffff" fill-opacity="1" transform="matrix(1,0,0,1,-437,-570)"></path></svg>
